<svg width="800" height="600" viewBox="0 0 800 600" xmlns="http://www.w3.org/2000/svg"><g fill-rule="nonzero" fill="none"><path fill="#EE7D1F" d="M0 0h800v600H0z"/><g fill="#FFF"><path d="M278.323 340.144C270.774 332.646 267 323.095 267 311.49s3.774-21.116 11.323-28.538c7.55-7.421 17.138-11.132 28.768-11.132 13.363 0 23.335 4.54 29.915 13.619l-13.007 12.241c-3.672-5.406-9.002-8.11-15.99-8.11-6.07 0-11.005 2.002-14.805 6.006-3.8 4.004-5.7 9.296-5.7 15.876s1.9 11.91 5.7 15.99c3.8 4.08 8.735 6.121 14.805 6.121 6.784 0 12.114-2.754 15.99-8.263l13.007 12.165c-6.682 9.181-16.654 13.797-29.915 13.848-11.579 0-21.168-3.723-28.768-11.17zm64.068-13.925c0-8.263 2.601-14.409 7.804-18.438 5.202-4.03 11.323-6.045 18.362-6.045 10.762 0 18.745 3.086 23.947 9.258v-9.564c0-3.876-1.517-6.962-4.552-9.257-3.035-2.296-7.052-3.443-12.05-3.443-8.06 0-15.327 2.984-21.805 8.951l-7.804-13.924c8.875-7.957 19.892-11.936 33.052-11.936 9.69 0 17.648 2.244 23.87 6.733 6.223 4.489 9.335 11.808 9.335 21.958v48.89h-20.046v-7.957c-5.406 6.58-13.389 9.87-23.947 9.87-6.682 0-12.713-2.22-18.094-6.657-5.382-4.438-8.072-10.584-8.072-18.439zm23.947-8.033c-2.703 2.091-4.055 4.87-4.055 8.34 0 3.468 1.352 6.21 4.055 8.224 2.703 2.015 6.095 3.022 10.176 3.022 7.396 0 12.726-2.193 15.99-6.58v-9.334c-3.366-4.488-8.696-6.758-15.99-6.81-4.08 0-7.473 1.046-10.176 3.138zm58.42 31.215v-75.667h19.892v10.176c2.908-3.469 6.53-6.35 10.865-8.646 4.335-2.295 8.773-3.443 13.312-3.443v19.434c-1.479-.306-3.315-.46-5.508-.46-3.367 0-6.924.842-10.673 2.525-3.75 1.684-6.414 3.724-7.996 6.121v49.96h-19.892zm53.51 0v-75.667h19.892v10.176c2.907-3.469 6.528-6.35 10.864-8.646 4.335-2.295 8.773-3.443 13.312-3.443v19.434c-1.479-.306-3.315-.46-5.508-.46-3.367 0-6.924.842-10.673 2.525-3.75 1.684-6.414 3.724-7.995 6.121v49.96h-19.893zm59.553-9.563c-7.243-7.702-10.865-17.15-10.865-28.347 0-11.196 3.622-20.606 10.865-28.232 7.243-7.625 16.92-11.438 29.035-11.438 12.114 0 21.83 3.813 29.15 11.438 7.32 7.626 10.979 17.036 10.979 28.232 0 11.196-3.66 20.632-10.98 28.309-7.319 7.676-17.035 11.514-29.15 11.514-12.113 0-21.791-3.825-29.034-11.476zm9.793-28.385c0 6.274 1.721 11.527 5.164 15.76 3.443 4.234 8.148 6.351 14.116 6.351 6.07 0 10.826-2.117 14.269-6.35 3.443-4.234 5.164-9.487 5.164-15.761 0-6.172-1.721-11.362-5.164-15.57-3.443-4.208-8.2-6.312-14.269-6.312-5.968 0-10.673 2.104-14.116 6.312-3.443 4.208-5.164 9.398-5.164 15.57zm62.843-20.351v-17.368h12.548V253h19.892v20.734h15.378v17.368h-15.378v34.046c0 2.5.6 4.527 1.798 6.083 1.199 1.555 2.895 2.333 5.088 2.333 3.213 0 5.534-.79 6.962-2.372l4.208 15.226c-3.672 3.213-9.206 4.845-16.602 4.896-14.231 0-21.346-6.962-21.346-20.887v-39.325h-12.548zM203.754 350.966l7.96-6.474-13.328.259-16.529-19.09 12.412-8.702-17.717 2.24-17.954-20.267 17.059-9.497-20.594 4.245-14.152-15.961 91.606-23.386v25.597l-19.26 11.38 19.26-2.686v29.29l-9.935 6.487 9.935-.307v22.737l-6.745 5.895 6.745.54c0 19.21-.183 29.415-.55 30.617-2.426 3.003-28.213-32.917-28.213-32.917zM197.064 215c2.07 0-7.936 14.525-6.223 26.59 6.615-4.854 14.037-12.897 25.979-12.897 5.37 0-7.184 6.371-12.26 12.898-5.978 7.684-6.611 17.277-7.113 17.41-4.564 1.213-17.37 4.783-21.727 5.697-1.527.32-1.034-3.082-2.532-5.281-1.497-2.2-32.007-19.788-26.28-21.274 7.177-1.86 19.95 4.43 29.217 6.383C179.51 228.693 190.19 215 197.065 215z"/></g></g></svg>
