<svg width="800" height="600" viewBox="0 0 800 600" xmlns="http://www.w3.org/2000/svg"><g fill="none" fill-rule="evenodd"><path fill="#111" fill-rule="nonzero" d="M0 0h800v600H0z"/><g fill="#FFFFFE"><path d="M165 353h21v-78h-21zM229.315 274.808H245v14.46h-15.685v38.735c0 3.633.601 6.052 1.81 7.259 1.207 1.213 3.618 1.816 7.24 1.816 2.41 0 4.624-.218 6.635-.654v16.754c-1.81.33-3.822.548-6.032.66-2.213.106-4.374.162-6.485.162-3.315 0-6.452-.228-9.406-.68-2.956-.45-5.563-1.358-7.819-2.718-2.253-1.365-4.034-3.257-5.337-5.677-1.298-2.42-1.951-5.596-1.951-9.525v-46.133H195v-14.46h12.97v-19.019L229.315 245v29.808M256 353h21v-78h-21zM294 275.138h20.497v10.873h.47c2.726-4.438 6.261-7.716 10.607-9.833 4.34-2.12 8.785-3.178 13.33-3.178 5.756 0 10.48.783 14.17 2.35 3.684 1.565 6.586 3.735 8.71 6.513 2.119 2.778 3.609 6.162 4.468 10.15.858 3.99 1.288 8.408 1.288 13.26v48.171h-21.437v-44.251c0-6.467-1.038-11.294-3.111-14.476-2.076-3.181-5.644-4.773-10.7-4.773-5.871 0-10.12 1.744-12.753 5.227-2.63 3.487-3.944 9.221-3.944 17.205v41.068H294v-78.306zm141.297 30.528c-1.007-5.396-2.79-9.494-5.355-12.293-2.56-2.802-6.454-4.201-11.675-4.201-3.419 0-6.263.575-8.52 1.725-2.262 1.149-4.074 2.574-5.424 4.274-1.365 1.701-2.319 3.501-2.87 5.401-.551 1.9-.877 3.599-.978 5.094h34.822zm-34.822 13.56c.303 6.782 2.06 11.748 5.28 14.893 3.217 3.136 7.834 4.707 13.864 4.707 4.324 0 8.046-1.065 11.157-3.197 3.113-2.131 5.025-4.386 5.727-6.766h18.842c-3.01 9.21-7.635 15.871-13.866 19.978-6.233 4.103-13.77 6.159-22.613 6.159-6.133 0-11.655-1.005-16.574-3.01-4.921-2.007-9.08-4.816-12.484-8.425-3.407-3.611-6.032-7.92-7.889-12.94-1.854-5.016-2.778-10.533-2.778-16.551 0-5.817.952-11.233 2.855-16.247 1.903-5.015 4.605-9.356 8.11-13.016 3.508-3.658 7.695-6.543 12.565-8.652 4.866-2.105 10.263-3.159 16.195-3.159 6.63 0 12.408 1.282 17.338 3.84 4.923 2.559 8.965 5.998 12.132 10.316 3.165 4.317 5.454 9.235 6.862 14.756 1.406 5.522 1.91 11.292 1.507 17.315h-56.23zm68.643-44.088h20.236v14.587h.308a27.257 27.257 0 0 1 4.06-6.763 26.472 26.472 0 0 1 5.834-5.327 27.956 27.956 0 0 1 7.102-3.42 25.292 25.292 0 0 1 7.7-1.215c1.595 0 3.138.275 4.642.823v20.005c-1-.2-2.198-.377-3.592-.529a37.446 37.446 0 0 0-4.038-.23c-3.886 0-7.177.66-9.872 1.972-2.697 1.308-4.86 3.102-6.507 5.37-1.644 2.268-2.813 4.942-3.51 8.019-.697 3.077-1.046 6.331-1.046 9.756v35.258h-21.317v-78.306zM527 353h22v-78h-22zM581.654 327.558c0 2.333.48 4.334 1.447 6.008a12.549 12.549 0 0 0 3.728 4.108c1.518 1.065 3.273 1.85 5.257 2.354 1.969.51 4.024.763 6.153.763 1.526 0 3.123-.177 4.798-.525 1.676-.355 3.2-.906 4.57-1.658a10.342 10.342 0 0 0 3.427-3.017c.905-1.253 1.363-2.835 1.363-4.744 0-1.607-.56-2.987-1.673-4.139-1.121-1.157-2.718-2.187-4.803-3.092-2.083-.9-4.64-1.728-7.69-2.486a293.153 293.153 0 0 0-10.352-2.335 107.174 107.174 0 0 1-9.224-2.486c-2.994-.955-5.666-2.208-8.002-3.763-2.331-1.562-4.212-3.518-5.634-5.878-1.417-2.36-2.129-5.245-2.129-8.661 0-4.921.986-9.011 2.967-12.276 1.98-3.265 4.601-5.826 7.854-7.685 3.25-1.858 6.915-3.161 10.98-3.913A68.255 68.255 0 0 1 597.193 273c4.269 0 8.404.404 12.423 1.205 4.02.802 7.596 2.156 10.745 4.063 3.15 1.908 5.772 4.44 7.854 7.598 2.085 3.16 3.325 7.148 3.741 11.965h-20.659c-.303-4.146-1.88-6.957-4.724-8.42-2.844-1.464-6.188-2.2-10.05-2.2-1.22 0-2.54.076-3.965.229-1.422.148-2.71.476-3.879.977a7.984 7.984 0 0 0-2.972 2.183c-.816.955-1.215 2.236-1.215 3.842 0 1.908.712 3.467 2.13 4.672 1.421 1.203 3.277 2.183 5.561 2.936 2.287.752 4.897 1.434 7.847 2.036 2.945.602 5.937 1.253 8.988 1.955a92.455 92.455 0 0 1 9.211 2.562c2.997 1.006 5.671 2.335 8.002 3.993a19.332 19.332 0 0 1 5.634 6.174c1.422 2.462 2.134 5.503 2.134 9.115 0 5.124-1.038 9.414-3.12 12.88-2.085 3.467-4.805 6.257-8.162 8.363-3.352 2.107-7.184 3.613-11.501 4.518A64.192 64.192 0 0 1 598.035 355c-4.574 0-9.047-.455-13.416-1.354-4.37-.905-8.256-2.436-11.66-4.599-3.403-2.162-6.197-5.001-8.383-8.518-2.184-3.518-3.379-7.842-3.576-12.971h20.654M186 263h-21v-6.985L186 245v18M277 263h-21v-6.985L277 245v18M549 263h-22v-6.985L549 245v18"/></g></g></svg>