<svg xmlns="http://www.w3.org/2000/svg" width="800" height="600" fill="none" viewBox="0 0 800 600"><defs><clipPath id="a"><path d="M0 0h504v128H0z"/></clipPath></defs><path fill="#181516" d="M0 0h800v600H0z"/><g clip-path="url(#a)" transform="translate(148 236)"><path d="M0 0h504v128H0z"/><path fill="#fff" d="M0 125.412h22.102v-40.27h39.402q7.368 0 7.367 7.202v33.068h22.103V96.787c0-7.39-1.29-13.205-3.87-17.461-2.58-4.241-6.746-7.36-12.528-9.324 5.284-2.463 9.326-6.61 12.154-12.472 2.83-5.847 4.228-12.956 4.228-21.328V33.8H68.856v4.24c0 9.23-2.02 16.075-6.077 20.502-4.057 4.428-10.383 6.658-18.963 6.658h-21.73V16.994H0zm118.951-98.814c4.057 0 7.368-1.232 9.948-3.695s3.87-5.66 3.87-9.604c0-3.945-1.259-7.14-3.777-9.604S123.132 0 118.951 0s-7.367 1.232-9.947 3.695c-2.581 2.463-3.871 5.66-3.871 9.604s1.29 7.14 3.871 9.604 5.89 3.695 9.947 3.695m355.579 79.98h-34.987q-7.368 0-7.368-7.203V59.853q0-7.203 7.368-7.203h34.987q7.368 0 7.368 7.203v39.522q0 7.203-7.368 7.203M452.242 128c6.745 0 12.574-1.076 17.501-3.227 4.912-2.152 9.388-5.566 13.445-10.259v10.898H504V33.801h-20.812v10.898c-4.057-4.678-8.533-8.092-13.445-10.259-4.912-2.152-10.74-3.227-17.501-3.227-13.88 0-24.683 4.396-32.408 13.205-7.74 8.809-11.595 20.533-11.595 35.188s3.87 26.38 11.595 35.189c7.741 8.808 18.543 13.205 32.408 13.205m-66.292-2.588h18.963V105.83h-19.895q-7.368 0-7.368-7.203v-45.26h27.247V33.785H377.65V14.016h-20.252v12.005q0 7.764-7.368 7.764h-12.341v19.582h17.859v42.11c0 9.355 2.673 16.683 8.005 21.984 5.347 5.301 12.792 7.935 22.366 7.935zm-131.696-.016h43.458c24.916 0 37.381-8.933 37.381-26.784q0-12.184-7.274-18.57c-4.849-4.24-12.854-7.17-24.029-8.777l-18.419-2.775c-5.285-.857-8.72-1.762-10.305-2.681-1.601-.92-2.394-2.557-2.394-4.896v-1.668c0-2.09.56-3.602 1.663-4.521 1.104-.92 3-1.388 5.705-1.388h48.976V33.754h-40.505c-12.528 0-21.978 2.307-28.366 6.922-6.389 4.615-9.575 11.49-9.575 20.596q0 11.833 7.461 18.1c4.974 4.194 13.103 7.141 24.402 8.872l17.859 2.588c3.808.499 6.56.982 8.285 1.48 1.71.5 2.891 1.17 3.497 2.028.606.857.917 2.089.917 3.695v1.84c0 2.088-.591 3.601-1.756 4.521s-3.031 1.387-5.611 1.387h-51.37zm-105.88 0h22.103V59.822q0-7.203 7.367-7.203h32.221q7.367 0 7.367 7.203v65.574h22.102V62.971c0-9.604-3.155-17.306-9.481-23.09s-15.372-8.684-27.154-8.684c-7.118 0-13.6 1.17-19.428 3.508s-10.585 5.66-14.269 9.978V33.785H148.39v91.611zm-40.505 0h22.102V33.801h-22.102v91.611z"/></g></svg>