<svg width="800" height="600" xmlns="http://www.w3.org/2000/svg" viewBox="0 0 800 600"><g fill-rule="nonzero" fill="none"><path fill="#F4F4F4" d="M0 0h800v600H0z"/><path d="M246.777 275.808l-11.482 44.117-11.482-44.117h-11.565l2.675 9.465-10.083 36.133-11.03-45.598h-11.112l15.64 57.615h12.181l9.384-30.824 8.766 30.824h12.14l16.463-57.615h-10.495zm116.841 16.708a37.042 37.042 0 00-7.655-.946c-13.992 0-21.647 9.342-21.647 23.046 0 13.622 7.655 19.836 16.668 19.836a22.43 22.43 0 0013.17-4.815v3.786h9.589v-57.615h-10.125v16.708zm0 29.137c-3.292 3.004-6.379 4.65-9.63 4.65-5.597 0-9.178-3.703-9.178-12.387 0-9.383 4.445-14.28 12.182-14.28 2.264 0 4.527.452 6.585 1.276v20.741h.041zm-48.399-22.388h-.37v-6.749h-9.466v40.907h10.166V309.06c3.169-6.008 7.037-7.984 13.499-7.984h1.029v-8.807a27.452 27.452 0 00-2.758-.164c-5.515 0-9.301 2.14-12.1 7.202v-.042zm342.169-7.778c-13.993 0-20.62 9.054-20.62 21.524 0 12.428 6.585 21.4 20.62 21.4 14.034 0 20.618-8.972 20.618-21.4 0-12.47-6.708-21.524-20.66-21.524h.042zm0 34.734c-6.585 0-10.125-4.28-10.125-13.21 0-8.972 3.498-13.252 10.125-13.252 6.584 0 10.041 4.28 10.041 13.252 0 8.93-3.457 13.21-10.083 13.21h.042zm78.69-34.734c-4.363 0-9.384 2.387-13.911 5.433l-1.235.782c-2.1-4.569-6.42-6.174-11.153-6.174-4.363 0-9.343 2.223-13.911 5.227v-4.239h-9.63v40.907h10.206V304.08a21.813 21.813 0 0110.742-4.033c3.333 0 5.432 1.811 5.432 7.573v25.803h10.125v-29.22c3.786-2.468 7.82-4.115 10.7-4.115 3.375 0 5.433 1.77 5.433 7.573v25.762H749v-28.231c0-7.902-4.692-13.664-12.964-13.664l.041-.04zm-459.463 0c-13.993 0-20.578 9.054-20.578 21.524 0 12.428 6.585 21.4 20.578 21.4 13.993 0 20.66-8.972 20.66-21.4 0-12.47-6.75-21.524-20.7-21.524h.04zm0 34.734c-6.585 0-10.124-4.28-10.124-13.21 0-8.972 3.54-13.252 10.165-13.252 6.585 0 10.042 4.28 10.042 13.252 0 8.93-3.498 13.21-10.124 13.21h.041zm165.899-26.997h-.33v-6.708h-9.506v40.907h10.124V309.06c3.169-6.008 7.038-7.984 13.499-7.984h1.029v-8.807a27.452 27.452 0 00-2.758-.164c-5.473 0-9.26 2.14-12.1 7.202h.042v-.083zm-37.37-23.416h-18.849v57.615h10.865v-20.042h7.943c12.306 0 21.237-6.626 21.237-19.013 0-12.346-8.931-18.56-21.237-18.56h.041zm.083 29.137h-8.067v-20.618h8.026c6.585 0 9.795 3.621 9.795 10.041 0 6.461-3.005 10.577-9.795 10.577h.04zm148.242-.947c0-3.086 3.375-4.28 6.997-4.28 3.827.041 7.655.659 11.318 1.77v-8.396a41.734 41.734 0 00-12.141-1.564c-9.795 0-16.668 4.65-16.668 12.223 0 14.692 20.248 10.906 20.248 18.067 0 3.498-3.169 4.444-7.82 4.444-3.292 0-8.518-1.234-12.305-2.592v8.354a34.12 34.12 0 0011.935 2.428c9.548 0 18.644-2.84 18.644-13.046.123-14.198-20.166-10.535-20.166-17.408h-.042zm-72.022-12.47c-13.087 0-19.878 10.165-19.878 21.236 0 15.227 7.984 21.688 20.99 21.688 5.099.01 10.168-.78 15.021-2.346v-8.436c-4.239 1.563-8.108 2.51-12.223 2.51-7.573 0-12.635-2.058-12.882-10.988h26.175c.247-2.017.37-4.033.33-6.009 0-8.642-4.569-17.655-17.574-17.655h.041zm-8.89 16.956c.618-5.68 3.704-9.3 8.767-9.3 5.432 0 7.078 4.32 7.078 9.3h-15.845zm44.037-4.486c0-3.086 3.334-4.28 6.955-4.28 3.828.041 7.655.659 11.318 1.77v-8.396a41.734 41.734 0 00-12.1-1.564c-9.795 0-16.709 4.65-16.709 12.223 0 14.692 20.29 10.906 20.29 18.067 0 3.498-3.21 4.444-7.82 4.444-3.292 0-8.519-1.234-12.346-2.592v8.354a34.078 34.078 0 0011.935 2.428c9.548 0 18.685-2.84 18.685-13.046.082-14.198-20.208-10.535-20.208-17.408zm90.419 8.642c0-9.588 5.227-12.84 11.441-12.84 3.869.124 7.738.906 11.36 2.346v-8.642a33.379 33.379 0 00-11.524-1.976c-13.5 0-21.854 8.231-21.854 21.606 0 12.634 6.009 21.318 21.236 21.318 4.815 0 8.56-.947 12.676-2.346v-8.395c-4.65 1.77-8.23 2.469-11.4 2.469-6.708 0-11.935-3.087-11.935-13.58v.04zm-26.504 20.783h10.165V322.93H580.51v10.494zM58.079 300.5c0 18.396 10.7 34.24 26.175 41.771l-22.142-60.66a46.253 46.253 0 00-4.033 18.889zm46.423 46.422c5.392 0 10.577-.947 15.434-2.634l-.33-.618-14.28-39.096-13.911 40.454c4.115 1.235 8.52 1.894 13.087 1.894zm6.38-68.192l16.791 49.92 4.65-15.475c1.976-6.42 3.499-11.029 3.499-15.02 0-5.762-2.058-9.713-3.787-12.758-2.387-3.869-4.568-7.12-4.568-10.906 0-4.28 3.21-8.231 7.82-8.231h.576a46.26 46.26 0 00-31.36-12.182 46.383 46.383 0 00-38.77 20.907l2.964.082c4.856 0 12.347-.617 12.347-.617 2.551-.124 2.84 3.539.329 3.827 0 0-2.51.33-5.35.453l16.956 50.29 10.165-30.454-7.243-19.836a82.85 82.85 0 01-4.857-.412c-2.51-.165-2.222-3.992.289-3.868 0 0 7.654.617 12.223.617 4.856 0 12.346-.617 12.346-.617 2.511-.124 2.84 3.539.33 3.827 0 0-2.51.288-5.35.453zm16.956 61.895a46.421 46.421 0 0023.088-40.125 46.242 46.242 0 00-5.68-22.264 43.827 43.827 0 01-3.21 21.4l-14.198 40.989zM104.502 354C74.954 354 51 330.047 51 300.5S74.954 247 104.502 247c29.549 0 53.503 23.953 53.503 53.5S134.05 354 104.502 354z" fill="#000"/></g></svg>